<?xml version="1.0" standalone="no"?>
<!DOCTYPE svg PUBLIC "-//W3C//DTD SVG 20010904//EN"
 "http://www.w3.org/TR/2001/REC-SVG-20010904/DTD/svg10.dtd">
<svg version="1.0" xmlns="http://www.w3.org/2000/svg"
 width="225.000000pt" height="225.000000pt" viewBox="0 0 225.000000 225.000000"
 preserveAspectRatio="xMidYMid meet">

<g transform="translate(0.000000,225.000000) scale(0.100000,-0.100000)"
fill="#000000" stroke="none">
<path d="M760 1890 l0 -59 -62 -3 -63 -3 -3 -62 -3 -63 -69 0 -70 0 0 -157 c0
-87 3 -202 7 -256 l6 -98 61 3 61 3 5 60 5 60 123 3 122 3 0 59 0 60 245 0
245 0 0 -60 0 -59 123 -3 122 -3 5 -60 5 -60 61 -3 61 -3 6 98 c4 54 7 169 7
256 l0 157 -70 0 -69 0 -3 63 -3 62 -62 3 -63 3 0 59 0 60 -120 0 -120 0 0
-125 0 -125 -125 0 -125 0 0 125 0 125 -120 0 -120 0 0 -60z m120 -315 l0
-135 -59 0 -58 0 -7 92 c-3 50 -6 111 -6 135 l0 43 65 0 65 0 0 -135z m620 92
c0 -24 -3 -85 -6 -135 l-7 -92 -58 0 -59 0 0 135 0 135 65 0 65 0 0 -43z"/>
<path d="M370 1135 l0 -55 60 0 60 0 0 55 0 55 -60 0 -60 0 0 -55z"/>
<path d="M1760 1135 l0 -55 60 0 60 0 0 55 0 55 -60 0 -60 0 0 -55z"/>
<path d="M500 1010 l0 -60 -65 0 -65 0 0 -60 0 -60 60 0 59 0 3 -132 3 -133
68 -3 67 -3 0 -59 0 -60 125 0 125 0 0 -60 0 -60 245 0 245 0 0 60 0 60 125 0
125 0 0 60 0 59 68 3 67 3 3 133 3 132 59 0 60 0 0 60 0 60 -65 0 -65 0 0 60
0 60 -65 0 -65 0 0 -60 0 -60 65 0 65 0 0 -60 0 -59 -67 -3 -68 -3 -3 -62 -3
-63 -113 0 -113 0 -8 -130 -7 -130 -243 0 -243 0 -7 130 -8 130 -113 0 -113 0
-3 63 -3 62 -67 3 -68 3 0 59 0 60 65 0 65 0 0 60 0 60 -65 0 -65 0 0 -60z"/>
<path d="M760 945 l0 -125 60 0 60 0 0 125 0 125 -60 0 -60 0 0 -125z"/>
<path d="M1370 945 l0 -125 60 0 60 0 0 125 0 125 -60 0 -60 0 0 -125z"/>
<path d="M1002 888 l3 -63 120 0 120 0 3 63 3 62 -126 0 -126 0 3 -62z"/>
<path d="M1000 635 l0 -75 125 0 125 0 0 75 0 75 -125 0 -125 0 0 -75z"/>
</g>
</svg>
